<?xml version="1.0" encoding="UTF-8"?>
<svg width="256" height="256" viewBox="0 0 256 256" fill="none" xmlns="http://www.w3.org/2000/svg">
  <rect width="256" height="256" rx="50" fill="#FF7700"/>
  <path d="M128 40C79.06 40 40 79.06 40 128C40 176.94 79.06 216 128 216C176.94 216 216 176.94 216 128C216 79.06 176.94 40 128 40ZM128 200C86.56 200 56 169.44 56 128C56 86.56 86.56 56 128 56C169.44 56 200 86.56 200 128C200 169.44 169.44 200 128 200Z" fill="white"/>
  <path d="M120 100V156C120 162.627 124.373 168 131 168C137.627 168 142 162.627 142 156V100C142 93.373 137.627 88 131 88C124.373 88 120 93.373 120 100Z" fill="white"/>
  <path d="M90 120V156C90 162.627 94.373 168 101 168C107.627 168 112 162.627 112 156V120C112 113.373 107.627 108 101 108C94.373 108 90 113.373 90 120Z" fill="white"/>
  <path d="M150 130V156C150 162.627 154.373 168 161 168C167.627 168 172 162.627 172 156V130C172 123.373 167.627 118 161 118C154.373 118 150 123.373 150 130Z" fill="white"/>
</svg>
